<?xml version="1.0" encoding="UTF-8" standalone="no"?>
<!DOCTYPE svg PUBLIC "-//W3C//DTD SVG 1.1//EN"
 "http://www.w3.org/Graphics/SVG/1.1/DTD/svg11.dtd">
<!-- Generated by graphviz version 2.38.0 (20140413.2041)
 -->
<!-- Title: controllers_diagram Pages: 1 -->
<svg width="607pt" height="468pt"
 viewBox="0.00 0.00 606.50 467.50" xmlns="http://www.w3.org/2000/svg" xmlns:xlink="http://www.w3.org/1999/xlink">
<g id="graph0" class="graph" transform="scale(1 1) rotate(0) translate(228.5 256)">
<title>controllers_diagram</title>
<polygon fill="none" stroke="none" points="-228.5,211.5 -228.5,-256 378,-256 378,211.5 -228.5,211.5"/>
<!-- _diagram_info -->
<g id="node1" class="node"><title>_diagram_info</title>
<text text-anchor="start" x="168" y="-223.6" font-family="Times,serif" font-size="13.00">Controllers diagram</text>
<text text-anchor="start" x="168" y="-209.6" font-family="Times,serif" font-size="13.00">Date: Apr 02 2017 &#45; 15:33</text>
<text text-anchor="start" x="168" y="-195.6" font-family="Times,serif" font-size="13.00">Migration version: 20170402194507</text>
<text text-anchor="start" x="168" y="-181.6" font-family="Times,serif" font-size="13.00">Generated by RailRoady 1.5.2</text>
<text text-anchor="start" x="168" y="-167.6" font-family="Times,serif" font-size="13.00">http://railroady.prestonlee.com</text>
</g>
<!-- UsersController -->
<g id="node2" class="node"><title>UsersController</title>
<path fill="none" stroke="black" d="M-179.5,15C-179.5,15 -100.5,15 -100.5,15 -94.5,15 -88.5,9 -88.5,3 -88.5,3 -88.5,-81 -88.5,-81 -88.5,-87 -94.5,-93 -100.5,-93 -100.5,-93 -179.5,-93 -179.5,-93 -185.5,-93 -191.5,-87 -191.5,-81 -191.5,-81 -191.5,3 -191.5,3 -191.5,9 -185.5,15 -179.5,15"/>
<text text-anchor="middle" x="-140" y="-77.8" font-family="Times,serif" font-size="14.00">UsersController</text>
<polyline fill="none" stroke="black" points="-191.5,-70 -88.5,-70 "/>
<text text-anchor="start" x="-183.5" y="-54.8" font-family="Times,serif" font-size="14.00">finish_signup</text>
<polyline fill="none" stroke="black" points="-191.5,-47 -88.5,-47 "/>
<polyline fill="none" stroke="black" points="-191.5,-23 -88.5,-23 "/>
<text text-anchor="start" x="-183.5" y="-7.8" font-family="Times,serif" font-size="14.00">_layout</text>
<text text-anchor="start" x="-183.5" y="7.2" font-family="Times,serif" font-size="14.00">user_params</text>
</g>
<!-- ApplicationController -->
<g id="node3" class="node"><title>ApplicationController</title>
<path fill="none" stroke="black" d="M92,207C92,207 204,207 204,207 210,207 216,201 216,195 216,195 216,125 216,125 216,119 210,113 204,113 204,113 92,113 92,113 86,113 80,119 80,125 80,125 80,195 80,195 80,201 86,207 92,207"/>
<text text-anchor="middle" x="148" y="128.2" font-family="Times,serif" font-size="14.00">ApplicationController</text>
<polyline fill="none" stroke="black" points="80,136 216,136 "/>
<polyline fill="none" stroke="black" points="80,160 216,160 "/>
<polyline fill="none" stroke="black" points="80,184 216,184 "/>
<text text-anchor="start" x="88" y="199.2" font-family="Times,serif" font-size="14.00">_layout</text>
</g>
<!-- WelcomeController -->
<g id="node4" class="node"><title>WelcomeController</title>
<path fill="none" stroke="black" d="M-212.5,143.5C-212.5,143.5 -111.5,143.5 -111.5,143.5 -105.5,143.5 -99.5,137.5 -99.5,131.5 -99.5,131.5 -99.5,62.5 -99.5,62.5 -99.5,56.5 -105.5,50.5 -111.5,50.5 -111.5,50.5 -212.5,50.5 -212.5,50.5 -218.5,50.5 -224.5,56.5 -224.5,62.5 -224.5,62.5 -224.5,131.5 -224.5,131.5 -224.5,137.5 -218.5,143.5 -212.5,143.5"/>
<text text-anchor="middle" x="-162" y="65.7" font-family="Times,serif" font-size="14.00">WelcomeController</text>
<polyline fill="none" stroke="black" points="-224.5,73.5 -99.5,73.5 "/>
<text text-anchor="start" x="-216.5" y="88.7" font-family="Times,serif" font-size="14.00">index</text>
<polyline fill="none" stroke="black" points="-224.5,96.5 -99.5,96.5 "/>
<polyline fill="none" stroke="black" points="-224.5,120.5 -99.5,120.5 "/>
<text text-anchor="start" x="-216.5" y="135.7" font-family="Times,serif" font-size="14.00">_layout</text>
</g>
<!-- ProjectsController -->
<g id="node5" class="node"><title>ProjectsController</title>
<path fill="none" stroke="black" d="M-52,111.5C-52,111.5 40,111.5 40,111.5 46,111.5 52,105.5 52,99.5 52,99.5 52,-89.5 52,-89.5 52,-95.5 46,-101.5 40,-101.5 40,-101.5 -52,-101.5 -52,-101.5 -58,-101.5 -64,-95.5 -64,-89.5 -64,-89.5 -64,99.5 -64,99.5 -64,105.5 -58,111.5 -52,111.5"/>
<text text-anchor="middle" x="-6" y="-86.3" font-family="Times,serif" font-size="14.00">ProjectsController</text>
<polyline fill="none" stroke="black" points="-64,-78.5 52,-78.5 "/>
<text text-anchor="start" x="-56" y="-63.3" font-family="Times,serif" font-size="14.00">create</text>
<text text-anchor="start" x="-56" y="-48.3" font-family="Times,serif" font-size="14.00">destroy</text>
<text text-anchor="start" x="-56" y="-33.3" font-family="Times,serif" font-size="14.00">edit</text>
<text text-anchor="start" x="-56" y="-18.3" font-family="Times,serif" font-size="14.00">index</text>
<text text-anchor="start" x="-56" y="-3.3" font-family="Times,serif" font-size="14.00">new</text>
<text text-anchor="start" x="-56" y="11.7" font-family="Times,serif" font-size="14.00">show</text>
<text text-anchor="start" x="-56" y="26.7" font-family="Times,serif" font-size="14.00">update</text>
<polyline fill="none" stroke="black" points="-64,34.5 52,34.5 "/>
<polyline fill="none" stroke="black" points="-64,58.5 52,58.5 "/>
<text text-anchor="start" x="-56" y="73.7" font-family="Times,serif" font-size="14.00">_layout</text>
<text text-anchor="start" x="-56" y="88.7" font-family="Times,serif" font-size="14.00">project_params</text>
<text text-anchor="start" x="-56" y="103.7" font-family="Times,serif" font-size="14.00">set_project</text>
</g>
<!-- DashboardController -->
<g id="node6" class="node"><title>DashboardController</title>
<path fill="none" stroke="black" d="M236.5,79.5C236.5,79.5 343.5,79.5 343.5,79.5 349.5,79.5 355.5,73.5 355.5,67.5 355.5,67.5 355.5,-1.5 355.5,-1.5 355.5,-7.5 349.5,-13.5 343.5,-13.5 343.5,-13.5 236.5,-13.5 236.5,-13.5 230.5,-13.5 224.5,-7.5 224.5,-1.5 224.5,-1.5 224.5,67.5 224.5,67.5 224.5,73.5 230.5,79.5 236.5,79.5"/>
<text text-anchor="middle" x="290" y="1.7" font-family="Times,serif" font-size="14.00">DashboardController</text>
<polyline fill="none" stroke="black" points="224.5,9.5 355.5,9.5 "/>
<text text-anchor="start" x="232.5" y="24.7" font-family="Times,serif" font-size="14.00">index</text>
<polyline fill="none" stroke="black" points="224.5,32.5 355.5,32.5 "/>
<polyline fill="none" stroke="black" points="224.5,56.5 355.5,56.5 "/>
<text text-anchor="start" x="232.5" y="71.7" font-family="Times,serif" font-size="14.00">_layout</text>
</g>
<!-- OmniauthCallbacksController -->
<g id="node7" class="node"><title>OmniauthCallbacksController</title>
<path fill="none" stroke="black" d="M-116,-128.5C-116,-128.5 40,-128.5 40,-128.5 46,-128.5 52,-134.5 52,-140.5 52,-140.5 52,-239.5 52,-239.5 52,-245.5 46,-251.5 40,-251.5 40,-251.5 -116,-251.5 -116,-251.5 -122,-251.5 -128,-245.5 -128,-239.5 -128,-239.5 -128,-140.5 -128,-140.5 -128,-134.5 -122,-128.5 -116,-128.5"/>
<text text-anchor="middle" x="-38" y="-236.3" font-family="Times,serif" font-size="14.00">OmniauthCallbacksController</text>
<polyline fill="none" stroke="black" points="-128,-228.5 52,-228.5 "/>
<text text-anchor="start" x="-120" y="-213.3" font-family="Times,serif" font-size="14.00">after_sign_in_path_for</text>
<text text-anchor="start" x="-120" y="-198.3" font-family="Times,serif" font-size="14.00">facebook</text>
<text text-anchor="start" x="-120" y="-183.3" font-family="Times,serif" font-size="14.00">twitter</text>
<polyline fill="none" stroke="black" points="-128,-175.5 52,-175.5 "/>
<polyline fill="none" stroke="black" points="-128,-151.5 52,-151.5 "/>
<text text-anchor="start" x="-120" y="-136.3" font-family="Times,serif" font-size="14.00">_layout</text>
</g>
<!-- TasksController -->
<g id="node8" class="node"><title>TasksController</title>
<path fill="none" stroke="black" d="M92,79.5C92,79.5 172,79.5 172,79.5 178,79.5 184,73.5 184,67.5 184,67.5 184,-121.5 184,-121.5 184,-127.5 178,-133.5 172,-133.5 172,-133.5 92,-133.5 92,-133.5 86,-133.5 80,-127.5 80,-121.5 80,-121.5 80,67.5 80,67.5 80,73.5 86,79.5 92,79.5"/>
<text text-anchor="middle" x="132" y="-118.3" font-family="Times,serif" font-size="14.00">TasksController</text>
<polyline fill="none" stroke="black" points="80,-110.5 184,-110.5 "/>
<text text-anchor="start" x="88" y="-95.3" font-family="Times,serif" font-size="14.00">create</text>
<text text-anchor="start" x="88" y="-80.3" font-family="Times,serif" font-size="14.00">destroy</text>
<text text-anchor="start" x="88" y="-65.3" font-family="Times,serif" font-size="14.00">edit</text>
<text text-anchor="start" x="88" y="-50.3" font-family="Times,serif" font-size="14.00">index</text>
<text text-anchor="start" x="88" y="-35.3" font-family="Times,serif" font-size="14.00">new</text>
<text text-anchor="start" x="88" y="-20.3" font-family="Times,serif" font-size="14.00">show</text>
<text text-anchor="start" x="88" y="-5.3" font-family="Times,serif" font-size="14.00">update</text>
<polyline fill="none" stroke="black" points="80,2.5 184,2.5 "/>
<polyline fill="none" stroke="black" points="80,26.5 184,26.5 "/>
<text text-anchor="start" x="88" y="41.7" font-family="Times,serif" font-size="14.00">_layout</text>
<text text-anchor="start" x="88" y="56.7" font-family="Times,serif" font-size="14.00">set_task</text>
<text text-anchor="start" x="88" y="71.7" font-family="Times,serif" font-size="14.00">task_params</text>
</g>
</g>
</svg>
