<?xml version="1.0" encoding="UTF-8" standalone="no"?>
<!DOCTYPE svg PUBLIC "-//W3C//DTD SVG 1.1//EN"
 "http://www.w3.org/Graphics/SVG/1.1/DTD/svg11.dtd">
<!-- Generated by graphviz version 2.38.0 (20140413.2041)
 -->
<!-- Title: models_diagram Pages: 1 -->
<svg width="740pt" height="408pt"
 viewBox="0.00 0.00 739.50 408.00" xmlns="http://www.w3.org/2000/svg" xmlns:xlink="http://www.w3.org/1999/xlink">
<g id="graph0" class="graph" transform="scale(1 1) rotate(0) translate(4 404)">
<title>models_diagram</title>
<polygon fill="none" stroke="none" points="-4,4 -4,-404 735.5,-404 735.5,4 -4,4"/>
<!-- _diagram_info -->
<g id="node1" class="node"><title>_diagram_info</title>
<text text-anchor="start" x="8" y="-311.1" font-family="Times,serif" font-size="13.00">Models diagram</text>
<text text-anchor="start" x="8" y="-297.1" font-family="Times,serif" font-size="13.00">Date: Apr 02 2017 &#45; 15:33</text>
<text text-anchor="start" x="8" y="-283.1" font-family="Times,serif" font-size="13.00">Migration version: 20170402194507</text>
<text text-anchor="start" x="8" y="-269.1" font-family="Times,serif" font-size="13.00">Generated by RailRoady 1.5.2</text>
<text text-anchor="start" x="8" y="-255.1" font-family="Times,serif" font-size="13.00">http://railroady.prestonlee.com</text>
</g>
<!-- Identity -->
<g id="node2" class="node"><title>Identity</title>
<path fill="none" stroke="black" d="M244.5,-226C244.5,-226 351.5,-226 351.5,-226 357.5,-226 363.5,-232 363.5,-238 363.5,-238 363.5,-335 363.5,-335 363.5,-341 357.5,-347 351.5,-347 351.5,-347 244.5,-347 244.5,-347 238.5,-347 232.5,-341 232.5,-335 232.5,-335 232.5,-238 232.5,-238 232.5,-232 238.5,-226 244.5,-226"/>
<text text-anchor="middle" x="298" y="-331.8" font-family="Times,serif" font-size="14.00">Identity</text>
<polyline fill="none" stroke="black" points="232.5,-324 363.5,-324 "/>
<text text-anchor="start" x="240.5" y="-308.8" font-family="Times,serif" font-size="14.00">id :INTEGER</text>
<text text-anchor="start" x="240.5" y="-293.8" font-family="Times,serif" font-size="14.00">user_id :integer</text>
<text text-anchor="start" x="240.5" y="-278.8" font-family="Times,serif" font-size="14.00">provider :varchar</text>
<text text-anchor="start" x="240.5" y="-263.8" font-family="Times,serif" font-size="14.00">uid :varchar</text>
<text text-anchor="start" x="240.5" y="-248.8" font-family="Times,serif" font-size="14.00">created_at :datetime</text>
<text text-anchor="start" x="240.5" y="-233.8" font-family="Times,serif" font-size="14.00">updated_at :datetime</text>
</g>
<!-- Task -->
<g id="node3" class="node"><title>Task</title>
<path fill="none" stroke="black" d="M520.5,-0.5C520.5,-0.5 627.5,-0.5 627.5,-0.5 633.5,-0.5 639.5,-6.5 639.5,-12.5 639.5,-12.5 639.5,-124.5 639.5,-124.5 639.5,-130.5 633.5,-136.5 627.5,-136.5 627.5,-136.5 520.5,-136.5 520.5,-136.5 514.5,-136.5 508.5,-130.5 508.5,-124.5 508.5,-124.5 508.5,-12.5 508.5,-12.5 508.5,-6.5 514.5,-0.5 520.5,-0.5"/>
<text text-anchor="middle" x="574" y="-121.3" font-family="Times,serif" font-size="14.00">Task</text>
<polyline fill="none" stroke="black" points="508.5,-113.5 639.5,-113.5 "/>
<text text-anchor="start" x="516.5" y="-98.3" font-family="Times,serif" font-size="14.00">id :INTEGER</text>
<text text-anchor="start" x="516.5" y="-83.3" font-family="Times,serif" font-size="14.00">name :varchar</text>
<text text-anchor="start" x="516.5" y="-68.3" font-family="Times,serif" font-size="14.00">start_count :integer</text>
<text text-anchor="start" x="516.5" y="-53.3" font-family="Times,serif" font-size="14.00">total_time :integer</text>
<text text-anchor="start" x="516.5" y="-38.3" font-family="Times,serif" font-size="14.00">created_at :datetime</text>
<text text-anchor="start" x="516.5" y="-23.3" font-family="Times,serif" font-size="14.00">updated_at :datetime</text>
<text text-anchor="start" x="516.5" y="-8.3" font-family="Times,serif" font-size="14.00">project_id :integer</text>
</g>
<!-- User -->
<g id="node4" class="node"><title>User</title>
<path fill="none" stroke="black" d="M394,-173.5C394,-173.5 570,-173.5 570,-173.5 576,-173.5 582,-179.5 582,-185.5 582,-185.5 582,-387.5 582,-387.5 582,-393.5 576,-399.5 570,-399.5 570,-399.5 394,-399.5 394,-399.5 388,-399.5 382,-393.5 382,-387.5 382,-387.5 382,-185.5 382,-185.5 382,-179.5 388,-173.5 394,-173.5"/>
<text text-anchor="middle" x="482" y="-384.3" font-family="Times,serif" font-size="14.00">User</text>
<polyline fill="none" stroke="black" points="382,-376.5 582,-376.5 "/>
<text text-anchor="start" x="390" y="-361.3" font-family="Times,serif" font-size="14.00">id :INTEGER</text>
<text text-anchor="start" x="390" y="-346.3" font-family="Times,serif" font-size="14.00">email :varchar</text>
<text text-anchor="start" x="390" y="-331.3" font-family="Times,serif" font-size="14.00">encrypted_password :varchar</text>
<text text-anchor="start" x="390" y="-316.3" font-family="Times,serif" font-size="14.00">reset_password_token :varchar</text>
<text text-anchor="start" x="390" y="-301.3" font-family="Times,serif" font-size="14.00">reset_password_sent_at :datetime</text>
<text text-anchor="start" x="390" y="-286.3" font-family="Times,serif" font-size="14.00">remember_created_at :datetime</text>
<text text-anchor="start" x="390" y="-271.3" font-family="Times,serif" font-size="14.00">sign_in_count :integer</text>
<text text-anchor="start" x="390" y="-256.3" font-family="Times,serif" font-size="14.00">current_sign_in_at :datetime</text>
<text text-anchor="start" x="390" y="-241.3" font-family="Times,serif" font-size="14.00">last_sign_in_at :datetime</text>
<text text-anchor="start" x="390" y="-226.3" font-family="Times,serif" font-size="14.00">current_sign_in_ip :varchar</text>
<text text-anchor="start" x="390" y="-211.3" font-family="Times,serif" font-size="14.00">last_sign_in_ip :varchar</text>
<text text-anchor="start" x="390" y="-196.3" font-family="Times,serif" font-size="14.00">created_at :datetime</text>
<text text-anchor="start" x="390" y="-181.3" font-family="Times,serif" font-size="14.00">updated_at :datetime</text>
</g>
<!-- User&#45;&gt;Task -->
<g id="edge1" class="edge"><title>User&#45;&gt;Task</title>
<path fill="none" stroke="#b186b2" d="M533.745,-164.013C536.293,-158.029 538.818,-152.102 541.286,-146.306"/>
<polygon fill="#b186b2" stroke="#b186b2" points="533.67,-164.187 525.611,-171.624 531.711,-168.787 529.752,-173.388 529.752,-173.388 529.752,-173.388 531.711,-168.787 533.892,-175.151 533.67,-164.187 533.67,-164.187"/>
<polygon fill="#b186b2" stroke="#b186b2" points="541.464,-145.889 549.523,-138.452 543.423,-141.289 545.383,-136.689 545.383,-136.689 545.383,-136.689 543.423,-141.289 541.243,-134.925 541.464,-145.889 541.464,-145.889"/>
</g>
<!-- Project -->
<g id="node5" class="node"><title>Project</title>
<path fill="none" stroke="black" d="M612.5,-233.5C612.5,-233.5 719.5,-233.5 719.5,-233.5 725.5,-233.5 731.5,-239.5 731.5,-245.5 731.5,-245.5 731.5,-327.5 731.5,-327.5 731.5,-333.5 725.5,-339.5 719.5,-339.5 719.5,-339.5 612.5,-339.5 612.5,-339.5 606.5,-339.5 600.5,-333.5 600.5,-327.5 600.5,-327.5 600.5,-245.5 600.5,-245.5 600.5,-239.5 606.5,-233.5 612.5,-233.5"/>
<text text-anchor="middle" x="666" y="-324.3" font-family="Times,serif" font-size="14.00">Project</text>
<polyline fill="none" stroke="black" points="600.5,-316.5 731.5,-316.5 "/>
<text text-anchor="start" x="608.5" y="-301.3" font-family="Times,serif" font-size="14.00">id :INTEGER</text>
<text text-anchor="start" x="608.5" y="-286.3" font-family="Times,serif" font-size="14.00">name :varchar</text>
<text text-anchor="start" x="608.5" y="-271.3" font-family="Times,serif" font-size="14.00">created_at :datetime</text>
<text text-anchor="start" x="608.5" y="-256.3" font-family="Times,serif" font-size="14.00">updated_at :datetime</text>
<text text-anchor="start" x="608.5" y="-241.3" font-family="Times,serif" font-size="14.00">user_id :integer</text>
</g>
<!-- Project&#45;&gt;Task -->
<g id="edge2" class="edge"><title>Project&#45;&gt;Task</title>
<path fill="none" stroke="#03f6d3" d="M640.586,-225.831C630.087,-201.182 617.786,-172.301 606.633,-146.116"/>
<ellipse fill="none" stroke="#03f6d3" cx="642.279" cy="-229.808" rx="4.00001" ry="4.00001"/>
<polygon fill="#03f6d3" stroke="#03f6d3" points="606.5,-145.804 606.721,-134.84 604.541,-141.204 602.581,-136.604 602.581,-136.604 602.581,-136.604 604.541,-141.204 598.441,-138.367 606.5,-145.804 606.5,-145.804"/>
</g>
</g>
</svg>
