<?xml version="1.0" encoding="UTF-8" standalone="no"?>
<!DOCTYPE svg PUBLIC "-//W3C//DTD SVG 1.1//EN"
 "http://www.w3.org/Graphics/SVG/1.1/DTD/svg11.dtd">
<!-- Generated by graphviz version 2.38.0 (20140413.2041)
 -->
<!-- Title: models_diagram Pages: 1 -->
<svg width="479pt" height="158pt"
 viewBox="0.00 0.00 478.75 158.00" xmlns="http://www.w3.org/2000/svg" xmlns:xlink="http://www.w3.org/1999/xlink">
<g id="graph0" class="graph" transform="scale(1 1) rotate(0) translate(4 154)">
<title>models_diagram</title>
<polygon fill="none" stroke="none" points="-4,4 -4,-154 474.747,-154 474.747,4 -4,4"/>
<!-- _diagram_info -->
<g id="node1" class="node"><title>_diagram_info</title>
<text text-anchor="start" x="8" y="-135.6" font-family="Times,serif" font-size="13.00">Models diagram</text>
<text text-anchor="start" x="8" y="-121.6" font-family="Times,serif" font-size="13.00">Date: Apr 02 2017 &#45; 15:33</text>
<text text-anchor="start" x="8" y="-107.6" font-family="Times,serif" font-size="13.00">Migration version: 20170402194507</text>
<text text-anchor="start" x="8" y="-93.6" font-family="Times,serif" font-size="13.00">Generated by RailRoady 1.5.2</text>
<text text-anchor="start" x="8" y="-79.6" font-family="Times,serif" font-size="13.00">http://railroady.prestonlee.com</text>
</g>
<!-- Identity -->
<g id="node2" class="node"><title>Identity</title>
<ellipse fill="none" stroke="black" cx="270" cy="-111" rx="38.1938" ry="18"/>
<text text-anchor="middle" x="270" y="-107.3" font-family="Times,serif" font-size="14.00">Identity</text>
</g>
<!-- Task -->
<g id="node3" class="node"><title>Task</title>
<ellipse fill="none" stroke="black" cx="394" cy="-18" rx="27.8951" ry="18"/>
<text text-anchor="middle" x="394" y="-14.3" font-family="Times,serif" font-size="14.00">Task</text>
</g>
<!-- User -->
<g id="node4" class="node"><title>User</title>
<ellipse fill="none" stroke="black" cx="354" cy="-111" rx="27.0966" ry="18"/>
<text text-anchor="middle" x="354" y="-107.3" font-family="Times,serif" font-size="14.00">User</text>
</g>
<!-- User&#45;&gt;Task -->
<g id="edge1" class="edge"><title>User&#45;&gt;Task</title>
<path fill="none" stroke="#1b578b" d="M365.546,-83.7334C370.93,-71.4838 377.317,-56.9548 382.673,-44.7681"/>
<polygon fill="#1b578b" stroke="#1b578b" points="365.361,-84.1546 357.217,-91.4984 363.349,-88.7319 361.337,-93.3092 361.337,-93.3092 361.337,-93.3092 363.349,-88.7319 365.456,-95.12 365.361,-84.1546 365.361,-84.1546"/>
<polygon fill="#1b578b" stroke="#1b578b" points="382.686,-44.7396 390.829,-37.3958 384.698,-40.1623 386.71,-35.585 386.71,-35.585 386.71,-35.585 384.698,-40.1623 382.59,-33.7742 382.686,-44.7396 382.686,-44.7396"/>
</g>
<!-- Project -->
<g id="node5" class="node"><title>Project</title>
<ellipse fill="none" stroke="black" cx="435" cy="-111" rx="35.9954" ry="18"/>
<text text-anchor="middle" x="435" y="-107.3" font-family="Times,serif" font-size="14.00">Project</text>
</g>
<!-- Project&#45;&gt;Task -->
<g id="edge2" class="edge"><title>Project&#45;&gt;Task</title>
<path fill="none" stroke="#2fde60" d="M424.153,-85.9252C418.453,-73.2742 411.463,-57.7594 405.649,-44.8543"/>
<ellipse fill="none" stroke="#2fde60" cx="425.837" cy="-89.6623" rx="4.00002" ry="4.00002"/>
<polygon fill="#2fde60" stroke="#2fde60" points="405.58,-44.7023 405.575,-33.7364 403.526,-40.1437 401.472,-35.585 401.472,-35.585 401.472,-35.585 403.526,-40.1437 397.37,-37.4335 405.58,-44.7023 405.58,-44.7023"/>
</g>
</g>
</svg>
